<svg width="448" height="488" viewBox="0 0 448 488" fill="none" xmlns="http://www.w3.org/2000/svg">
<rect x="272" y="176" width="8" height="8" fill="#7D261D"/>
<rect x="280" y="168" width="8" height="8" fill="#7D261D"/>
<rect x="288" y="160" width="8" height="8" fill="#7D261D"/>
<rect x="288" y="152" width="8" height="8" fill="#7D261D"/>
<rect x="296" y="144" width="8" height="8" fill="#7D261D"/>
<rect x="296" y="136" width="8" height="8" fill="#7D261D"/>
<rect x="304" y="128" width="8" height="8" fill="#7D261D"/>
<rect x="304" y="120" width="8" height="8" fill="#7D261D"/>
<rect x="312" y="112" width="8" height="8" fill="#7D261D"/>
<rect x="312" y="104" width="8" height="8" fill="#7D261D"/>
<rect x="312" y="96" width="8" height="8" fill="#7D261D"/>
<rect x="312" y="88" width="8" height="8" fill="#7D261D"/>
<rect x="320" y="80" width="8" height="8" fill="#7D261D"/>
<rect x="320" y="72" width="8" height="8" fill="#7D261D"/>
<rect x="320" y="64" width="8" height="8" fill="#7D261D"/>
<rect x="320" y="56" width="8" height="8" fill="#7D261D"/>
<rect x="312" y="48" width="8" height="8" fill="#7D261D"/>
<rect x="304" y="48" width="8" height="8" fill="#7D261D"/>
<rect x="296" y="48" width="8" height="8" fill="#7D261D"/>
<rect x="288" y="48" width="8" height="8" fill="#7D261D"/>
<rect x="288" y="56" width="8" height="8" fill="#7D261D"/>
<rect x="280" y="56" width="8" height="8" fill="#7D261D"/>
<rect x="280" y="48" width="8" height="8" fill="#7D261D"/>
<rect x="272" y="56" width="8" height="8" fill="#7D261D"/>
<rect x="272" y="64" width="8" height="8" fill="#7D261D"/>
<rect x="264" y="72" width="8" height="8" fill="#7D261D"/>
<rect x="256" y="80" width="8" height="8" fill="#7D261D"/>
<rect x="248" y="88" width="8" height="8" fill="#7D261D"/>
<rect x="240" y="96" width="8" height="8" fill="#7D261D"/>
<rect x="232" y="104" width="8" height="8" fill="#7D261D"/>
<rect x="224" y="112" width="8" height="8" fill="#7D261D"/>
<rect x="216" y="120" width="8" height="8" fill="#7D261D"/>
<rect x="224" y="128" width="8" height="8" fill="#7D261D"/>
<rect x="232" y="128" width="8" height="8" fill="#7D261D"/>
<rect x="240" y="136" width="8" height="8" fill="#7D261D"/>
<rect x="240" y="144" width="8" height="8" fill="#7D261D"/>
<rect x="240" y="152" width="8" height="8" fill="#7D261D"/>
<rect x="248" y="160" width="8" height="8" fill="#7D261D"/>
<rect x="248" y="168" width="8" height="8" fill="#7D261D"/>
<rect x="248" y="176" width="8" height="8" fill="#7D261D"/>
<rect x="248" y="184" width="8" height="8" fill="#7D261D"/>
<rect x="248" y="192" width="8" height="8" fill="#7D261D"/>
<rect x="264" y="192" width="8" height="8" fill="#7D261D"/>
<rect x="256" y="200" width="8" height="8" fill="#7D261D"/>
<rect x="256" y="208" width="8" height="8" fill="#7D261D"/>
<rect x="256" y="216" width="8" height="8" fill="#7D261D"/>
<rect x="264" y="224" width="8" height="8" fill="#7D261D"/>
<rect x="272" y="232" width="8" height="8" fill="#7D261D"/>
<rect x="280" y="232" width="8" height="8" fill="#7D261D"/>
<rect x="288" y="240" width="8" height="8" fill="#7D261D"/>
<rect x="296" y="240" width="8" height="8" fill="#7D261D"/>
<rect x="304" y="240" width="8" height="8" fill="#7D261D"/>
<rect x="312" y="248" width="8" height="8" fill="#7D261D"/>
<rect x="320" y="248" width="8" height="8" fill="#7D261D"/>
<rect x="328" y="248" width="8" height="8" fill="#7D261D"/>
<rect x="336" y="248" width="8" height="8" fill="#7D261D"/>
<rect x="344" y="248" width="8" height="8" fill="#7D261D"/>
<rect x="352" y="248" width="8" height="8" fill="#7D261D"/>
<rect x="360" y="248" width="8" height="8" fill="#7D261D"/>
<rect x="368" y="248" width="8" height="8" fill="#7D261D"/>
<rect x="376" y="256" width="8" height="8" fill="#7D261D"/>
<rect x="384" y="256" width="8" height="8" fill="#7D261D"/>
<rect x="392" y="256" width="8" height="8" fill="#7D261D"/>
<rect x="400" y="256" width="8" height="8" fill="#7D261D"/>
<rect x="408" y="248" width="8" height="8" fill="#7D261D"/>
<rect x="416" y="248" width="8" height="8" fill="#7D261D"/>
<rect x="424" y="256" width="8" height="8" fill="#7D261D"/>
<rect x="424" y="264" width="8" height="8" fill="#7D261D"/>
<rect x="424" y="272" width="8" height="8" fill="#7D261D"/>
<rect x="424" y="280" width="8" height="8" fill="#7D261D"/>
<rect x="392" y="264" width="8" height="8" fill="#7D261D"/>
<rect x="400" y="272" width="8" height="8" fill="#7D261D"/>
<rect x="408" y="280" width="8" height="8" fill="#7D261D"/>
<rect x="416" y="288" width="8" height="8" fill="#7D261D"/>
<rect x="416" y="296" width="8" height="8" fill="#7D261D"/>
<rect x="416" y="304" width="8" height="8" fill="#7D261D"/>
<rect x="424" y="312" width="8" height="8" fill="#7D261D"/>
<rect x="424" y="320" width="8" height="8" fill="#7D261D"/>
<rect x="424" y="328" width="8" height="8" fill="#7D261D"/>
<rect x="424" y="336" width="8" height="8" fill="#7D261D"/>
<rect x="424" y="344" width="8" height="8" fill="#7D261D"/>
<rect x="424" y="352" width="8" height="8" fill="#7D261D"/>
<rect x="424" y="360" width="8" height="8" fill="#7D261D"/>
<rect x="424" y="368" width="8" height="8" fill="#7D261D"/>
<rect x="432" y="368" width="8" height="8" fill="#7D261D"/>
<rect x="440" y="376" width="8" height="8" fill="#7D261D"/>
<rect x="440" y="384" width="8" height="8" fill="#7D261D"/>
<rect x="440" y="392" width="8" height="8" fill="#7D261D"/>
<rect x="440" y="400" width="8" height="8" fill="#7D261D"/>
<rect x="440" y="408" width="8" height="8" fill="#7D261D"/>
<rect x="440" y="416" width="8" height="8" fill="#7D261D"/>
<rect x="440" y="424" width="8" height="8" fill="#7D261D"/>
<rect x="440" y="432" width="8" height="8" fill="#7D261D"/>
<rect x="440" y="440" width="8" height="8" fill="#7D261D"/>
<rect x="432" y="448" width="8" height="8" fill="#7D261D"/>
<rect x="424" y="448" width="8" height="8" fill="#7D261D"/>
<rect x="416" y="448" width="8" height="8" fill="#7D261D"/>
<rect x="408" y="440" width="8" height="8" fill="#7D261D"/>
<rect x="400" y="432" width="8" height="8" fill="#7D261D"/>
<rect x="400" y="424" width="8" height="8" fill="#7D261D"/>
<rect x="392" y="424" width="8" height="8" fill="#7D261D"/>
<rect x="384" y="424" width="8" height="8" fill="#7D261D"/>
<rect x="376" y="424" width="8" height="8" fill="#7D261D"/>
<rect x="368" y="424" width="8" height="8" fill="#7D261D"/>
<rect x="360" y="424" width="8" height="8" fill="#7D261D"/>
<rect x="352" y="416" width="8" height="8" fill="#7D261D"/>
<rect x="352" y="408" width="8" height="8" fill="#7D261D"/>
<rect x="344" y="400" width="8" height="8" fill="#7D261D"/>
<rect x="336" y="408" width="8" height="8" fill="#7D261D"/>
<rect x="328" y="408" width="8" height="8" fill="#7D261D"/>
<rect x="320" y="408" width="8" height="8" fill="#7D261D"/>
<rect x="312" y="408" width="8" height="8" fill="#7D261D"/>
<rect x="304" y="408" width="8" height="8" fill="#7D261D"/>
<rect x="296" y="408" width="8" height="8" fill="#7D261D"/>
<rect x="288" y="408" width="8" height="8" fill="#7D261D"/>
<rect x="280" y="408" width="8" height="8" fill="#7D261D"/>
<rect x="272" y="408" width="8" height="8" fill="#7D261D"/>
<rect x="264" y="408" width="8" height="8" fill="#7D261D"/>
<rect x="256" y="408" width="8" height="8" fill="#7D261D"/>
<rect x="248" y="408" width="8" height="8" fill="#7D261D"/>
<rect x="240" y="408" width="8" height="8" fill="#7D261D"/>
<rect x="240" y="416" width="8" height="8" fill="#7D261D"/>
<rect x="240" y="424" width="8" height="8" fill="#7D261D"/>
<rect x="240" y="432" width="8" height="8" fill="#7D261D"/>
<rect x="240" y="440" width="8" height="8" fill="#7D261D"/>
<rect x="240" y="448" width="8" height="8" fill="#7D261D"/>
<rect x="240" y="456" width="8" height="8" fill="#7D261D"/>
<rect x="240" y="464" width="8" height="8" fill="#7D261D"/>
<rect x="232" y="472" width="8" height="8" fill="#7D261D"/>
<rect x="224" y="480" width="8" height="8" fill="#7D261D"/>
<rect x="216" y="480" width="8" height="8" fill="#7D261D"/>
<rect x="208" y="480" width="8" height="8" fill="#7D261D"/>
<rect x="200" y="472" width="8" height="8" fill="#7D261D"/>
<rect x="192" y="464" width="8" height="8" fill="#7D261D"/>
<rect x="192" y="456" width="8" height="8" fill="#7D261D"/>
<rect x="184" y="448" width="8" height="8" fill="#7D261D"/>
<rect x="184" y="440" width="8" height="8" fill="#7D261D"/>
<rect x="184" y="432" width="8" height="8" fill="#7D261D"/>
<rect x="184" y="424" width="8" height="8" fill="#7D261D"/>
<rect x="184" y="416" width="8" height="8" fill="#7D261D"/>
<rect x="184" y="408" width="8" height="8" fill="#7D261D"/>
<rect x="184" y="400" width="8" height="8" fill="#7D261D"/>
<rect x="176" y="408" width="8" height="8" fill="#7D261D"/>
<rect x="168" y="408" width="8" height="8" fill="#7D261D"/>
<rect x="160" y="408" width="8" height="8" fill="#7D261D"/>
<rect x="152" y="408" width="8" height="8" fill="#7D261D"/>
<rect x="144" y="408" width="8" height="8" fill="#7D261D"/>
<rect x="136" y="400" width="8" height="8" fill="#7D261D"/>
<rect x="128" y="400" width="8" height="8" fill="#7D261D"/>
<rect x="120" y="392" width="8" height="8" fill="#7D261D"/>
<rect x="112" y="392" width="8" height="8" fill="#7D261D"/>
<rect x="104" y="384" width="8" height="8" fill="#7D261D"/>
<rect x="96" y="384" width="8" height="8" fill="#7D261D"/>
<rect x="96" y="376" width="8" height="8" fill="#7D261D"/>
<rect x="96" y="368" width="8" height="8" fill="#7D261D"/>
<rect x="88" y="360" width="8" height="8" fill="#7D261D"/>
<rect x="88" y="352" width="8" height="8" fill="#7D261D"/>
<rect x="88" y="344" width="8" height="8" fill="#7D261D"/>
<rect x="88" y="336" width="8" height="8" fill="#7D261D"/>
<rect x="88" y="328" width="8" height="8" fill="#7D261D"/>
<rect x="88" y="320" width="8" height="8" fill="#7D261D"/>
<rect x="88" y="312" width="8" height="8" fill="#7D261D"/>
<rect x="80" y="312" width="8" height="8" fill="#7D261D"/>
<rect x="72" y="312" width="8" height="8" fill="#7D261D"/>
<rect x="64" y="304" width="8" height="8" fill="#7D261D"/>
<rect x="56" y="296" width="8" height="8" fill="#7D261D"/>
<rect x="48" y="288" width="8" height="8" fill="#7D261D"/>
<rect x="40" y="280" width="8" height="8" fill="#7D261D"/>
<rect x="32" y="272" width="8" height="8" fill="#7D261D"/>
<rect x="24" y="264" width="8" height="8" fill="#7D261D"/>
<rect x="16" y="256" width="8" height="8" fill="#7D261D"/>
<rect x="16" y="248" width="8" height="8" fill="#7D261D"/>
<rect x="8" y="240" width="8" height="8" fill="#7D261D"/>
<rect x="8" y="232" width="8" height="8" fill="#7D261D"/>
<rect x="32" y="208" width="8" height="8" fill="#7D261D"/>
<rect x="32" y="216" width="8" height="8" fill="#7D261D"/>
<rect x="32" y="224" width="8" height="8" fill="#7D261D"/>
<rect x="40" y="232" width="8" height="8" fill="#7D261D"/>
<rect x="48" y="232" width="8" height="8" fill="#7D261D"/>
<rect x="56" y="232" width="8" height="8" fill="#7D261D"/>
<rect x="56" y="240" width="8" height="8" fill="#7D261D"/>
<rect x="56" y="248" width="8" height="8" fill="#7D261D"/>
<rect x="56" y="256" width="8" height="8" fill="#7D261D"/>
<rect x="56" y="264" width="8" height="8" fill="#7D261D"/>
<rect x="56" y="272" width="8" height="8" fill="#7D261D"/>
<rect x="64" y="280" width="8" height="8" fill="#7D261D"/>
<rect x="72" y="288" width="8" height="8" fill="#7D261D"/>
<rect x="80" y="288" width="8" height="8" fill="#7D261D"/>
<rect x="88" y="280" width="8" height="8" fill="#7D261D"/>
<rect x="96" y="272" width="8" height="8" fill="#7D261D"/>
<rect x="104" y="264" width="8" height="8" fill="#7D261D"/>
<rect x="104" y="256" width="8" height="8" fill="#7D261D"/>
<rect x="104" y="248" width="8" height="8" fill="#7D261D"/>
<rect x="112" y="248" width="8" height="8" fill="#7D261D"/>
<rect x="120" y="248" width="8" height="8" fill="#7D261D"/>
<rect x="128" y="240" width="8" height="8" fill="#7D261D"/>
<rect x="136" y="240" width="8" height="8" fill="#7D261D"/>
<rect x="144" y="240" width="8" height="8" fill="#7D261D"/>
<rect x="144" y="232" width="8" height="8" fill="#7D261D"/>
<rect x="144" y="224" width="8" height="8" fill="#7D261D"/>
<rect x="144" y="192" width="8" height="8" fill="#7D261D"/>
<rect x="144" y="184" width="8" height="8" fill="#7D261D"/>
<rect x="144" y="176" width="8" height="8" fill="#7D261D"/>
<rect x="144" y="168" width="8" height="8" fill="#7D261D"/>
<rect x="152" y="160" width="8" height="8" fill="#7D261D"/>
<rect x="152" y="168" width="8" height="8" fill="#7D261D"/>
<rect x="152" y="176" width="8" height="8" fill="#7D261D"/>
<rect x="152" y="184" width="8" height="8" fill="#7D261D"/>
<rect x="152" y="192" width="8" height="8" fill="#7D261D"/>
<rect x="152" y="200" width="8" height="8" fill="#7D261D"/>
<rect x="160" y="200" width="8" height="8" fill="#7D261D"/>
<rect x="168" y="200" width="8" height="8" fill="#7D261D"/>
<rect x="168" y="208" width="8" height="8" fill="#7D261D"/>
<rect x="176" y="208" width="8" height="8" fill="#7D261D"/>
<rect x="176" y="200" width="8" height="8" fill="#7D261D"/>
<rect x="184" y="208" width="8" height="8" fill="#7D261D"/>
<rect x="184" y="200" width="8" height="8" fill="#7D261D"/>
<rect x="184" y="192" width="8" height="8" fill="#7D261D"/>
<rect x="184" y="184" width="8" height="8" fill="#7D261D"/>
<rect x="184" y="176" width="8" height="8" fill="#7D261D"/>
<rect x="176" y="176" width="8" height="8" fill="#7D261D"/>
<rect x="176" y="168" width="8" height="8" fill="#7D261D"/>
<rect x="168" y="160" width="8" height="8" fill="#7D261D"/>
<rect x="160" y="160" width="8" height="8" fill="#7D261D"/>
<rect x="96" y="240" width="8" height="8" fill="#7D261D"/>
<rect x="88" y="240" width="8" height="8" fill="#7D261D"/>
<rect x="80" y="232" width="8" height="8" fill="#7D261D"/>
<rect x="72" y="224" width="8" height="8" fill="#7D261D"/>
<rect x="64" y="224" width="8" height="8" fill="#7D261D"/>
<rect x="64" y="216" width="8" height="8" fill="#7D261D"/>
<rect x="64" y="208" width="8" height="8" fill="#7D261D"/>
<rect x="64" y="200" width="8" height="8" fill="#7D261D"/>
<rect x="40" y="208" width="8" height="8" fill="#7D261D"/>
<rect y="224" width="8" height="8" fill="#7D261D"/>
<rect y="216" width="8" height="8" fill="#7D261D"/>
<rect y="208" width="8" height="8" fill="#7D261D"/>
<rect y="200" width="8" height="8" fill="#7D261D"/>
<rect y="192" width="8" height="8" fill="#7D261D"/>
<rect x="8" y="184" width="8" height="8" fill="#7D261D"/>
<rect x="8" y="176" width="8" height="8" fill="#7D261D"/>
<rect x="16" y="168" width="8" height="8" fill="#7D261D"/>
<rect x="24" y="160" width="8" height="8" fill="#7D261D"/>
<rect x="32" y="152" width="8" height="8" fill="#7D261D"/>
<rect x="40" y="152" width="8" height="8" fill="#7D261D"/>
<rect x="40" y="160" width="8" height="8" fill="#7D261D"/>
<rect x="40" y="168" width="8" height="8" fill="#7D261D"/>
<rect x="40" y="176" width="8" height="8" fill="#7D261D"/>
<rect x="48" y="176" width="8" height="8" fill="#7D261D"/>
<rect x="56" y="176" width="8" height="8" fill="#7D261D"/>
<rect x="64" y="168" width="8" height="8" fill="#7D261D"/>
<rect x="72" y="168" width="8" height="8" fill="#7D261D"/>
<rect x="72" y="160" width="8" height="8" fill="#7D261D"/>
<rect x="72" y="152" width="8" height="8" fill="#7D261D"/>
<rect x="72" y="144" width="8" height="8" fill="#7D261D"/>
<rect x="64" y="144" width="8" height="8" fill="#7D261D"/>
<rect x="64" y="136" width="8" height="8" fill="#7D261D"/>
<rect x="56" y="136" width="8" height="8" fill="#7D261D"/>
<rect x="56" y="144" width="8" height="8" fill="#7D261D"/>
<rect x="48" y="144" width="8" height="8" fill="#7D261D"/>
<rect x="32" y="176" width="8" height="8" fill="#7D261D"/>
<rect x="32" y="144" width="8" height="8" fill="#7D261D"/>
<rect x="32" y="136" width="8" height="8" fill="#7D261D"/>
<rect x="40" y="128" width="8" height="8" fill="#7D261D"/>
<rect x="40" y="120" width="8" height="8" fill="#7D261D"/>
<rect x="32" y="112" width="8" height="8" fill="#7D261D"/>
<rect x="48" y="112" width="8" height="8" fill="#7D261D"/>
<rect x="48" y="104" width="8" height="8" fill="#7D261D"/>
<rect x="56" y="96" width="8" height="8" fill="#7D261D"/>
<rect x="64" y="96" width="8" height="8" fill="#7D261D"/>
<rect x="72" y="88" width="8" height="8" fill="#7D261D"/>
<rect x="72" y="80" width="8" height="8" fill="#7D261D"/>
<rect x="80" y="72" width="8" height="8" fill="#7D261D"/>
<rect x="80" y="64" width="8" height="8" fill="#7D261D"/>
<rect x="80" y="56" width="8" height="8" fill="#7D261D"/>
<rect x="72" y="48" width="8" height="8" fill="#7D261D"/>
<rect x="72" y="40" width="8" height="8" fill="#7D261D"/>
<rect x="72" y="32" width="8" height="8" fill="#7D261D"/>
<rect x="64" y="24" width="8" height="8" fill="#7D261D"/>
<rect x="64" y="16" width="8" height="8" fill="#7D261D"/>
<rect x="64" y="8" width="8" height="8" fill="#7D261D"/>
<rect x="32" y="104" width="8" height="8" fill="#7D261D"/>
<rect x="32" y="96" width="8" height="8" fill="#7D261D"/>
<rect x="32" y="88" width="8" height="8" fill="#7D261D"/>
<rect x="32" y="80" width="8" height="8" fill="#7D261D"/>
<rect x="32" y="72" width="8" height="8" fill="#7D261D"/>
<rect x="32" y="64" width="8" height="8" fill="#7D261D"/>
<rect x="32" y="56" width="8" height="8" fill="#7D261D"/>
<rect x="40" y="48" width="8" height="8" fill="#7D261D"/>
<rect x="40" y="40" width="8" height="8" fill="#7D261D"/>
<rect x="40" y="32" width="8" height="8" fill="#7D261D"/>
<rect x="40" y="24" width="8" height="8" fill="#7D261D"/>
<rect x="48" y="16" width="8" height="8" fill="#7D261D"/>
<rect x="48" y="8" width="8" height="8" fill="#7D261D"/>
<rect x="56" width="8" height="8" fill="#7D261D"/>
<rect x="64" width="8" height="8" fill="#7D261D"/>
<rect x="72" width="8" height="8" fill="#7D261D"/>
<rect x="80" y="8" width="8" height="8" fill="#7D261D"/>
<rect x="80" y="16" width="8" height="8" fill="#7D261D"/>
<rect x="88" y="24" width="8" height="8" fill="#7D261D"/>
<rect x="96" y="32" width="8" height="8" fill="#7D261D"/>
<rect x="104" y="40" width="8" height="8" fill="#7D261D"/>
<rect x="104" y="48" width="8" height="8" fill="#7D261D"/>
<rect x="112" y="56" width="8" height="8" fill="#7D261D"/>
<rect x="120" y="64" width="8" height="8" fill="#7D261D"/>
<rect x="120" y="72" width="8" height="8" fill="#7D261D"/>
<rect x="128" y="80" width="8" height="8" fill="#7D261D"/>
<rect x="136" y="88" width="8" height="8" fill="#7D261D"/>
<rect x="144" y="88" width="8" height="8" fill="#7D261D"/>
<rect x="152" y="88" width="8" height="8" fill="#7D261D"/>
<rect x="160" y="96" width="8" height="8" fill="#7D261D"/>
<rect x="168" y="96" width="8" height="8" fill="#7D261D"/>
<rect x="176" y="96" width="8" height="8" fill="#7D261D"/>
<rect x="184" y="88" width="8" height="8" fill="#7D261D"/>
<rect x="192" y="88" width="8" height="8" fill="#7D261D"/>
<rect x="200" y="80" width="8" height="8" fill="#7D261D"/>
<rect x="208" y="80" width="8" height="8" fill="#7D261D"/>
<rect x="216" y="72" width="8" height="8" fill="#7D261D"/>
<rect x="224" y="72" width="8" height="8" fill="#7D261D"/>
<rect x="232" y="72" width="8" height="8" fill="#7D261D"/>
<rect x="240" y="64" width="8" height="8" fill="#7D261D"/>
<rect x="248" y="64" width="8" height="8" fill="#7D261D"/>
<rect x="256" y="56" width="8" height="8" fill="#7D261D"/>
<rect x="264" y="56" width="8" height="8" fill="#7D261D"/>
<rect x="88" y="384" width="8" height="8" fill="#7D261D"/>
<rect x="80" y="384" width="8" height="8" fill="#7D261D"/>
<rect x="72" y="384" width="8" height="8" fill="#7D261D"/>
<rect x="64" y="384" width="8" height="8" fill="#7D261D"/>
<rect x="56" y="392" width="8" height="8" fill="#7D261D"/>
<rect x="48" y="392" width="8" height="8" fill="#7D261D"/>
<rect x="40" y="392" width="8" height="8" fill="#7D261D"/>
<rect x="32" y="392" width="8" height="8" fill="#7D261D"/>
<rect x="24" y="392" width="8" height="8" fill="#7D261D"/>
<rect x="16" y="384" width="8" height="8" fill="#7D261D"/>
<rect x="16" y="376" width="8" height="8" fill="#7D261D"/>
<rect x="16" y="368" width="8" height="8" fill="#7D261D"/>
<rect x="16" y="360" width="8" height="8" fill="#7D261D"/>
<rect x="24" y="352" width="8" height="8" fill="#7D261D"/>
<rect x="32" y="352" width="8" height="8" fill="#7D261D"/>
<rect x="40" y="344" width="8" height="8" fill="#7D261D"/>
<rect x="48" y="344" width="8" height="8" fill="#7D261D"/>
<rect x="56" y="344" width="8" height="8" fill="#7D261D"/>
<rect x="64" y="336" width="8" height="8" fill="#7D261D"/>
<rect x="72" y="336" width="8" height="8" fill="#7D261D"/>
<rect x="80" y="336" width="8" height="8" fill="#7D261D"/>
<rect x="344" y="392" width="8" height="8" fill="#7D261D"/>
<rect x="344" y="384" width="8" height="8" fill="#7D261D"/>
<rect x="344" y="376" width="8" height="8" fill="#7D261D"/>
<rect x="344" y="368" width="8" height="8" fill="#7D261D"/>
<rect x="344" y="360" width="8" height="8" fill="#7D261D"/>
<rect x="344" y="352" width="8" height="8" fill="#7D261D"/>
<rect x="344" y="344" width="8" height="8" fill="#7D261D"/>
<rect x="264" y="184" width="8" height="8" fill="#7D261D"/>
<path fill-rule="evenodd" clip-rule="evenodd" d="M80 8H72V16V24V32H80V40V48V56H88V64H96V56H104V48V40H96V32H88V24H80V16V8Z" fill="#ED1C24"/>
<path fill-rule="evenodd" clip-rule="evenodd" d="M104 56H96V64H88V80H80V96H72V104H56V112V120H48V128V136H40V152H48V144H56V136H72V144H80V136H88V128H96V120H104V112H112V104H120V96H128H136V88H128V80H120V64H112V56H104ZM32 184H40V192H32V200H24V208H16V224H8V192H16V176H24V168H32V160H40V176H32V184Z" fill="#FF4726"/>
<path fill-rule="evenodd" clip-rule="evenodd" d="M184 96H192V104H184V96ZM184 104V112H176V120H168V128H160V136H152V144H145V152H137V160H129V168H121V160V152V144H128V136V128V120H136V112H144V104H184ZM80 136H88V168H80V136ZM32 192H40V200H32V192ZM40 192V184H56V192H40ZM24 208H16V216H24V208ZM8 224H16V232H8V224Z" fill="#FF7F27"/>
<path fill-rule="evenodd" clip-rule="evenodd" d="M256 64H272V72H264V80H256V88H248V96H240V104H232V112H224V120H216V128H224V136V144H216V152H208V160H200V168H192V176H184V168H176V160H152V168H144V200H152V208H160V216H136V208H128V200H120V168H128V160H136V152H144V144H152V136H160V128H168V120H176V112H184V104H192V96H200V88H216V80H240V72H256V64Z" fill="#FDB102"/>
<path fill-rule="evenodd" clip-rule="evenodd" d="M224 136H240V144V152V160H248V168V184H240V192H232V200H224V208H216V216H208V224H200V232H192V240H184V248H176V256H168V248V240H160V232V224H152V216H192V208V200V192V184V168H200V160H208V152H216V144H224V136ZM64 344H80V352H72V360H64V368H56V360V352H64V344Z" fill="#FFF200"/>
<path fill-rule="evenodd" clip-rule="evenodd" d="M248 184H240V192H232V200H224V208H216V216H208V224H200V232H192V240H184V248H176V256H168V264V272H176V280H200V272H216V264H224V256H232V248H240V240H248V232V224V216H256V208V200H248V192V184ZM88 368H96V384H64V368V360H72V352H80V344H88V352V360V368Z" fill="#DFEA1A"/>
<path fill-rule="evenodd" clip-rule="evenodd" d="M264 240H288V248H312V256H304V264H296V272H288V280H280V288H272V296H264V304H256V296V288V280H264V272V264V256V248V240ZM256 304V312H248V304H256Z" fill="#B5E61D"/>
<path fill-rule="evenodd" clip-rule="evenodd" d="M304 256H376V264H368V272H360V280H352V288H344V296H336V304H328V312H320V320H312V328H304V336H296V344H288V352H280V360H272V368H264V376H256V384H248V392H240V400H232V408H224V416H216V424H208V432H200V440H192V432V424V416V408V400H184V392H192V384H200V376H208V368H216V360H224V352V344H232V336H240V328V320H248V312H256V304H264V296H272V288H280V280H288V272H296V264H304V256Z" fill="#01E791"/>
<path fill-rule="evenodd" clip-rule="evenodd" d="M408 256H424V280V288H416V280H408V272H400V264H408V256ZM392 272H400V280H408V288H416V296V304V312H408V320H400V328H392V336H384V344H376V352H368V360H360V368H352V360V352V344H344V352V360V368V376V384H336V392H328V400H320V408H240V416V424V432V440H216V448H192V440H200V432H208V424H216V416H224V408H232V400H240V392H248V384H256V376H264V368H272V360H280V352H288V344H296V336H304V328H312V320H320V312H328V304H336V296H344V288H352V280H360V272H368V264H392V272Z" fill="#00A2E8"/>
<path fill-rule="evenodd" clip-rule="evenodd" d="M408 312H424V320V328V336V344V352V360V368V376H416V384H408V392H400V400H392V408H384V416H376V424H360V416V408H352V400V392V384V376V368H360V360H368V352H376V344H384V336H392V328H400V320H408V312ZM320 400H328V392H336V384H344V392V400V408H320V400Z" fill="#7D27E7"/>
<path fill-rule="evenodd" clip-rule="evenodd" d="M440 376H416V384H408V392H400V400H392V408H384V416H376V424H416V416H424V408H432V400H440V392V384V376Z" fill="#A349A4"/>
<path fill-rule="evenodd" clip-rule="evenodd" d="M120 96H160V104H144V112H136V120H128V136V144H120V168V176V184V200H128V208H136V216H152V224H144V232V240H128V248H104V240H88V232H80V224H72V216V208V200H96V184H88V176H80V168H88V136V128H96V120H104V112H112V104H120V96ZM80 176V184H72V176H80ZM40 232H64V224V216V208V200V192V184H56V192H40V200H24V208V216H16V224V232V240V248H24V256V264H32V272H40V280H48V288H56V296H64V304H72V312H96V368H104V376V384H112V392H128V400H144V408H184V400V392H192V384H200V376H208V368H216V360H224V352V344H232V336H240V328V320H248V312V304H256V280H264V272V264V256V248V240H272V232H264V224H256V216H248V224V232V240H240V248H232V256H224V264H216V272H200V280H176V272H168V264V256V248V240H160V232V224H152V232V240V248H128V256H112V264V272H104V280H96V288H88V296H72V288H64V280H56V272V264V256V248V240H40V232ZM40 232V224V216H48V208H32V216V224V232H40ZM72 152H64H56V160H64H72V152ZM160 168H168H176V176H168H160V168ZM240 440H216V448H200H192V456H200V472H208V480H232V472H240V448V440ZM96 264H88V272H96V264ZM64 264H72V272H64V264ZM56 360V352H40V360H24V392H56H64V368H56V360ZM440 400H432V408H424V416H416V424H408V440H416V448H440V440V424V416V408V400Z" fill="white"/>
<path fill-rule="evenodd" clip-rule="evenodd" d="M264 88H256V96H248V104H240V112H232V120H224V128H240V136H248V128H256V120V112H264V104V96V88Z" fill="#F79893"/>
<path fill-rule="evenodd" clip-rule="evenodd" d="M272 72H280V80V88V96H272V104V112V120V128H264V136V144H256V152H248V144V136V128H256V120V112H264V104V96V88V80H272V72Z" fill="#F69C97"/>
<path fill-rule="evenodd" clip-rule="evenodd" d="M280 96H272V104V112V120H280V112V104V96ZM272 128H264V136H272V128ZM256 144H264V152H256V144ZM256 152V160H248V152H256Z" fill="#F6A39E"/>
<path fill-rule="evenodd" clip-rule="evenodd" d="M280 64H288V72V80V88V96V104H280V96V88V80V72V64ZM280 120H272V128H280V120ZM264 136H272V144V152H264V144V136ZM264 152V160H256V152H264Z" fill="#F5ADA9"/>
<path fill-rule="evenodd" clip-rule="evenodd" d="M288 104H280V112H288V104ZM272 128H280V136H272V128ZM272 152H264V160H256V168H264V160H272V152Z" fill="#F4BCB9"/>
<path fill-rule="evenodd" clip-rule="evenodd" d="M312 56H320V64V72V80V88H312V120H304V136H296V152H288V168H280V176H272V184H264V200H256V168H264V160H272V136H280V112H288V64H296V56H304H312Z" fill="#F3CAC8"/>
<path fill-rule="evenodd" clip-rule="evenodd" d="M80 56H72H64V64V72V80V88H56V96H64H72V88V80H80V72V64V56Z" fill="#F79893"/>
<path fill-rule="evenodd" clip-rule="evenodd" d="M72 48H64V56H72V48ZM64 80H56V88H64V80Z" fill="#F69C97"/>
<path fill-rule="evenodd" clip-rule="evenodd" d="M72 48H64V56H72V48ZM64 80H56V88H64V80Z" fill="#F69C97"/>
<path fill-rule="evenodd" clip-rule="evenodd" d="M72 40H64V48H72V40ZM64 72H56V80H64V72Z" fill="#F6A39E"/>
<path fill-rule="evenodd" clip-rule="evenodd" d="M72 32H64V40H72V32ZM56 64H64V72H56V64ZM48 96H56V104H48V96Z" fill="#F5ADA9"/>
<path fill-rule="evenodd" clip-rule="evenodd" d="M64 56H56V64H64V56ZM56 88H48V96H56V88Z" fill="#F4BCB9"/>
<path fill-rule="evenodd" clip-rule="evenodd" d="M64 8H56V24H48V56H40V120H48V88H56V56H64V8Z" fill="#F3CAC8"/>
<path fill-rule="evenodd" clip-rule="evenodd" d="M64 232H80V240H88V248H104V256H88V264H80V256H72V248H64V240V232ZM80 264V280H72V264H80Z" fill="#CD5962"/>
<path fill-rule="evenodd" clip-rule="evenodd" d="M72 248H64V256V264H80V272V280H72V272H64V280H72V288H88V280H96V272H104V264V256H88V264H80V256H72V248ZM88 264H96V272H88V264Z" fill="#ED8480"/>
<path fill-rule="evenodd" clip-rule="evenodd" d="M48 152H56V160H72V168H64V176H48V168V160V152ZM72 184V176H64V184V200H96V184H88V176H80V184H72ZM176 176H160V184V200H184V184H176V176Z" fill="black"/>
</svg>
